<!DOCTYPE svg PUBLIC "-//W3C//DTD SVG 20010904//EN" "http://www.w3.org/TR/2001/REC-SVG-20010904/DTD/svg10.dtd">
<svg version="1.0" xmlns="http://www.w3.org/2000/svg" width="639px" height="291px" viewBox="0 0 6390 2910" preserveAspectRatio="xMidYMid meet">
<g id="layer101" fill="#1f1f1f" stroke="none">
<path d="M3959 1903 c-120 -121 -131 -142 -105 -212 9 -25 16 -66 16 -91 0 -25 -7 -66 -16 -91 -11 -29 -14 -57 -10 -75 8 -31 175 -207 218 -230 69 -36 121 -7 167 91 96 202 96 427 0 616 -36 72 -69 99 -122 99 -39 0 -47 -6 -148 -107z"/>
</g>
<g id="layer102" fill="#127fbc" stroke="none">
<path d="M3495 2205 c-69 -15 -157 -52 -211 -88 -98 -68 -194 -186 -232 -291 -52 -139 -46 -146 123 -146 68 0 131 3 140 6 9 4 25 25 36 48 62 122 198 192 324 166 122 -25 102 -32 208 73 54 53 97 101 97 107 0 28 -24 49 -88 79 -127 58 -268 74 -397 46z"/>
<path d="M5275 2216 c-5 -3 -26 -7 -46 -10 -20 -4 -56 -20 -81 -36 -110 -73 -134 -253 -73 -558 72 -366 207 -562 425 -618 198 -50 360 46 360 215 0 83 -33 154 -111 236 -106 111 -241 173 -424 194 -49 6 -95 11 -101 11 -15 0 -34 130 -34 228 1 160 55 224 188 223 74 0 173 -27 240 -65 47 -28 49 -26 30 54 -14 60 -37 76 -152 105 -67 16 -201 29 -221 21z m169 -706 c119 -40 207 -114 247 -205 57 -129 -1 -225 -128 -212 -99 10 -170 69 -237 197 -31 59 -86 214 -86 242 0 17 134 2 204 -22z"/>
<path d="M676 2163 c9 -16 103 -152 207 -303 104 -151 191 -280 194 -286 2 -6 -28 -132 -66 -279 -39 -147 -71 -271 -71 -276 0 -5 31 -9 70 -9 l69 0 10 38 c6 20 31 120 56 222 26 102 48 186 50 188 1 2 67 -98 145 -222 l143 -226 74 0 c57 0 72 3 67 13 -4 6 -88 132 -186 279 l-178 268 75 300 c41 165 75 304 75 310 0 6 -30 10 -74 10 -68 0 -74 -2 -79 -22 -3 -13 -27 -124 -53 -248 -26 -124 -50 -228 -53 -232 -4 -4 -81 107 -171 247 l-165 254 -79 1 -78 0 18 -27z"/>
<path d="M1620 2182 c0 -5 74 -356 165 -780 91 -425 165 -775 165 -777 0 -12 360 -4 422 10 165 34 237 152 208 339 -22 147 -74 269 -148 348 -84 90 -205 128 -409 128 l-98 0 -64 308 c-36 169 -71 335 -79 370 l-14 62 -74 0 c-41 0 -74 -4 -74 -8z m542 -863 c82 -17 143 -55 182 -113 73 -108 107 -329 60 -393 -37 -51 -85 -66 -213 -67 l-114 -1 -33 155 c-18 85 -46 217 -62 293 l-30 137 79 0 c43 0 102 -5 131 -11z"/>
<path d="M2542 2178 c3 -7 83 -383 179 -835 l173 -823 74 0 74 0 -6 27 c-3 16 -82 388 -176 827 -93 440 -170 804 -170 808 0 4 -34 8 -76 8 -57 0 -75 -3 -72 -12z"/>
<path d="M4390 2176 c0 -40 233 -1112 243 -1118 71 -45 402 -101 420 -70 3 4 0 31 -6 60 l-11 52 -55 0 c-32 0 -93 11 -142 26 l-86 26 -93 432 c-50 237 -101 470 -112 519 l-20 87 -69 0 c-53 0 -69 -3 -69 -14z"/>
<path d="M3959 1903 c-120 -121 -131 -142 -105 -212 9 -25 16 -66 16 -91 0 -25 -7 -66 -16 -91 -11 -29 -14 -57 -10 -75 8 -31 175 -207 218 -230 69 -36 121 -7 167 91 96 202 96 427 0 616 -36 72 -69 99 -122 99 -39 0 -47 -6 -148 -107z m171 -75 c0 -4 -13 -8 -30 -8 -34 0 -37 6 -13 32 16 18 18 18 30 2 7 -10 13 -21 13 -26z m32 -103 l5 -25 -92 0 c-83 0 -93 2 -98 19 -3 11 -2 22 1 25 3 3 45 6 93 6 85 0 87 -1 91 -25z m16 -122 c-3 -28 -3 -28 -90 -31 l-88 -3 0 31 0 30 91 0 90 0 -3 -27z m-12 -109 c-3 -9 -6 -22 -6 -30 0 -11 -19 -14 -88 -14 -49 0 -91 2 -94 5 -3 3 -3 17 0 30 4 25 6 25 99 25 83 0 94 -2 89 -16z m-36 -109 c0 -2 -5 -16 -12 -30 -11 -24 -12 -24 -30 -9 -27 26 -23 44 12 44 17 0 30 -2 30 -5z"/>
<path d="M3030 1500 c-21 -39 32 -175 105 -270 85 -110 196 -186 330 -225 81 -24 239 -24 320 0 70 21 166 67 184 89 20 24 7 46 -94 146 l-95 94 -47 -17 c-27 -10 -77 -17 -113 -17 -119 0 -214 64 -282 189 l-17 31 -140 0 c-130 0 -141 -1 -151 -20z"/>
</g>
<g id="layer103" fill="#16a8fc" stroke="none">
<path d="M3490 2189 c-25 -5 -54 -13 -65 -18 -11 -6 -36 -17 -55 -25 -44 -19 -102 -53 -109 -63 -3 -5 -21 -21 -40 -36 -84 -69 -170 -218 -174 -299 l-2 -43 138 -3 137 -3 10 26 c23 61 90 131 157 165 70 35 190 37 275 5 18 -7 198 168 198 193 0 24 -119 84 -198 101 -61 13 -206 13 -272 0z"/>
<path d="M4075 1991 c-23 -11 -194 -184 -216 -220 -14 -22 -13 -28 5 -65 25 -50 26 -154 2 -208 -11 -26 -13 -44 -7 -61 5 -13 55 -70 111 -127 94 -96 104 -103 140 -103 22 0 46 6 55 13 24 20 70 111 96 191 33 102 34 282 1 379 -27 80 -69 165 -92 185 -21 19 -69 27 -95 16z m55 -137 c16 -41 13 -44 -40 -44 -27 0 -50 3 -50 7 0 13 54 63 67 63 7 0 18 -12 23 -26z m27 -92 c7 -4 16 -22 19 -40 l7 -32 -106 0 -105 0 -7 27 c-10 41 15 53 104 53 42 0 82 -4 88 -8z m22 -126 c7 -8 11 -27 9 -43 l-3 -28 -97 -3 -98 -3 0 39 c0 21 3 42 7 45 3 4 43 7 88 7 60 0 86 -4 94 -14z m-4 -126 c4 -6 4 -24 0 -40 l-7 -30 -99 0 c-109 0 -122 7 -101 56 11 23 16 24 106 24 54 0 98 -4 101 -10z m-35 -129 c0 -10 -9 -29 -19 -42 l-19 -24 -31 34 c-17 19 -28 38 -25 42 3 5 25 9 50 9 36 0 44 -3 44 -19z"/>
<path d="M3050 1500 c-35 -22 44 -209 129 -303 38 -42 134 -117 149 -117 5 0 15 -6 21 -14 6 -7 33 -19 59 -26 26 -7 53 -18 61 -24 19 -15 293 -15 312 0 8 6 28 14 44 18 60 14 135 59 135 81 0 22 -166 195 -188 195 -7 0 -36 -7 -63 -16 -63 -21 -145 -14 -214 17 -52 23 -155 119 -155 144 0 8 -9 24 -20 35 -18 18 -33 20 -137 20 -65 0 -125 -5 -133 -10z"/>
</g>


</svg>